<svg width="544" height="490" viewBox="0 0 544 490" fill="none" xmlns="http://www.w3.org/2000/svg">
<path d="M181.5 399.5C198.5 380.5 209 334.779 145 323C63.5 308 11 278.5 0 203.5C12.1667 224 32.5 256 111 278.5C129.152 283.261 166.696 295.859 177.389 301.709C162.975 291.953 133.534 274.01 112.5 268C84.5 260 -26 211.5 12.5 92.5C14.3333 117.5 33 176.6 93 213C112.167 223.5 155.1 247.9 173.5 261.5C164.667 253.167 138.5 230.8 104.5 208C62 179.5 -12 94.5 60 0C55.1667 34.6667 67.8 121 157 189C177.167 201.667 221.2 232.5 234 252.5C239.5 236.833 248 209 256.5 201C247.667 202.333 227.2 200 216 180C224.167 184.167 246 188.4 268 172C295.5 151.5 327 163 330 170.5C341.167 168.833 365 169.6 371 186C356.5 181.5 311.5 194 325 252.5C336.5 283.333 342.8 354.5 276 392.5C260.833 399.833 225.2 415.9 204 421.5C177.5 428.5 139 451 133 489.5C130.333 471 140.892 431.238 195 401.5C260.5 365.5 283.5 354 295.5 282.5C292.833 255.5 298.3 198.1 341.5 184.5C323.333 189.667 286.9 211.7 286.5 258.5C286 317 274.5 353.5 181.5 399.5Z" fill="url(#paint0_4sur4)"/>
<path d="M426.5 217C421.018 220.489 389.208 244.344 371.671 259.848C377.283 255.032 421.74 229.364 443.5 217C509.9 177.4 529.5 117.5 531 92.5C569 207 461.5 259 426.5 270C398.5 278.8 373.5 295.667 364.5 303C376.5 293.8 419.833 281.167 440 276C504.8 258.4 536.333 219.333 544 202C537.5 269 482.5 310 414.5 319C360.1 326.2 332.833 349.667 326 360.5C346.8 325.3 344.333 287.5 340.5 273C329.3 239.8 369.167 200.833 390.5 185.5C481 110.5 485.5 32.5 483.5 0C557.5 99.6 476.333 186.167 426.5 217Z" fill="url(#paint1_4sur4)"/>
<defs>
<linearGradient id="paint0_4sur4" x1="185.5" y1="0" x2="157.29" y2="547.356" gradientUnits="userSpaceOnUse">
<stop stop-color="#FFF896"/>
<stop offset="0.3" stop-color="#F5CE18"/>
<stop offset="0.6" stop-color="#91FF05"/>
<stop offset="1" stop-color="#50B1FE"/>
</linearGradient>
<linearGradient id="paint1_4sur4" x1="435" y1="0" x2="409" y2="402.5" gradientUnits="userSpaceOnUse">
<stop stop-color="#C4FF79"/>
<stop offset="0.4" stop-color="#91FF05"/>
<stop offset="0.7" stop-color="#50B1FE"/>
<stop offset="1" stop-color="#79E7FF"/>
</linearGradient>
</defs>
</svg>
