<svg width="107" height="58" viewBox="0 0 107 58" fill="none" xmlns="http://www.w3.org/2000/svg">
<g clip-path="url(#clip0_259_151)">
<g filter="url(#filter0_d_259_151)">
<path d="M42.6802 29.3523C42.769 30.5407 42.621 31.8626 42.2366 33.3183C41.852 34.7444 41.2901 36.0663 40.5508 37.2843C39.8115 38.5023 38.9093 39.5125 37.8447 40.3145C36.7799 41.1166 35.5967 41.488 34.2955 41.4286C33.5857 41.399 32.9349 41.2354 32.3434 40.9383C31.752 40.6116 31.2343 40.1957 30.7907 39.6907C30.3766 39.1855 30.0365 38.5916 29.7704 37.9081C29.5041 37.2249 29.3563 36.4972 29.3266 35.7247C29.2675 34.2986 29.4155 32.8728 29.7704 31.4467C30.1548 30.0208 30.7021 28.7285 31.4117 27.5699C32.1513 26.4113 33.0384 25.4755 34.0738 24.7625C35.1089 24.0494 36.2623 23.6929 37.5341 23.6929C38.4214 23.6929 39.1756 23.8565 39.7966 24.1832C40.4176 24.4803 40.9352 24.8962 41.3493 25.431C41.7634 25.9655 42.074 26.5747 42.2809 27.2579C42.4879 27.9411 42.621 28.6392 42.6802 29.3523ZM34.1624 40.8048C34.9017 40.8642 35.5524 40.6116 36.1143 40.0472C36.7059 39.453 37.2086 38.6955 37.6227 37.7746C38.0368 36.8537 38.3769 35.8435 38.6432 34.7444C38.939 33.6154 39.1607 32.5162 39.3085 31.4467C39.3382 31.1794 39.3974 30.6891 39.486 29.9763C39.5748 29.2633 39.6043 28.5206 39.5748 27.7482C39.5748 26.9461 39.486 26.2331 39.3085 25.609C39.131 24.9556 38.8058 24.5693 38.3325 24.4504C37.741 24.3316 37.1643 24.5842 36.6024 25.208C36.07 25.8022 35.5673 26.5448 35.094 27.4361C34.6505 28.3274 34.2658 29.2334 33.9406 30.1543C33.6151 31.0456 33.3933 31.6993 33.275 32.1152C32.9498 33.1549 32.728 34.1947 32.6097 35.2344C32.4914 36.2446 32.4765 37.1655 32.5654 37.9974C32.654 38.7994 32.8315 39.4679 33.0976 40.0025C33.3639 40.5077 33.7188 40.775 34.1624 40.8048ZM56.4622 23.2919C56.9649 23.5593 57.2164 23.9604 57.2164 24.4952C57.2164 25.0297 57.0981 25.5794 56.8615 26.1438C56.6248 26.7084 56.3439 27.2134 56.0187 27.6589C55.6932 28.0749 55.4419 28.2976 55.2645 28.3274C55.2053 28.3274 55.1756 28.268 55.1756 28.1492C55.0278 27.5254 54.7615 27.0945 54.3771 26.8569C53.9927 26.5896 53.5489 26.5302 53.0462 26.6786C52.573 26.7974 52.0406 27.1095 51.449 27.6144C50.8871 28.0898 50.3401 28.773 49.8077 29.6643C49.1273 30.7339 48.6097 31.8775 48.2548 33.0955C47.9001 34.2839 47.5303 35.4572 47.1459 36.616C46.9093 37.3586 46.7021 38.1607 46.5246 39.0222C46.3472 39.8839 46.2289 40.6116 46.1697 41.2058C45.7558 41.3841 45.3712 41.4731 45.0163 41.4731C44.3361 41.4731 43.8037 41.2207 43.4193 40.7155C43.0644 40.2106 42.9017 39.4975 42.9312 38.5766C42.9903 37.6259 43.1827 36.5417 43.5079 35.3237C43.8334 34.0758 44.1735 32.8282 44.5284 31.5804C44.9128 30.303 45.2529 29.085 45.5487 27.9264C45.8445 26.7678 46.0219 25.8022 46.0811 25.0297C46.1105 24.8219 46.0959 24.5991 46.0368 24.3614C46.0071 24.0939 45.9479 23.8861 45.8593 23.7376C46.0071 23.7078 46.1402 23.6929 46.2586 23.6929C46.3769 23.6633 46.4952 23.6484 46.6135 23.6484C46.8796 23.6484 47.1754 23.6929 47.5006 23.7821C47.8555 23.8712 48.1662 24.0049 48.4323 24.1832C48.728 24.3614 48.9647 24.5842 49.1421 24.8515C49.3493 25.119 49.4528 25.4457 49.4528 25.832C49.4528 26.0993 49.4085 26.4409 49.3196 26.8569C49.2605 27.243 49.1718 27.6738 49.0535 28.1492C48.9352 28.6246 48.8169 29.0999 48.6986 29.575C48.5803 30.0504 48.4768 30.4962 48.388 30.9119C48.7429 30.1991 49.1718 29.3523 49.6745 28.372C50.1773 27.3618 50.754 26.4409 51.4047 25.609C52.0849 24.7774 52.8391 24.1238 53.6672 23.6484C54.4954 23.1434 55.4271 23.0245 56.4622 23.2919ZM71.1952 37.017C71.1658 37.6112 71.0177 38.1756 70.7517 38.7104C70.4853 39.2449 70.1304 39.7203 69.6868 40.1362C69.2728 40.5522 68.7849 40.8938 68.2228 41.1613C67.6906 41.399 67.1582 41.5176 66.6258 41.5176C65.9751 41.5176 65.4575 41.3841 65.0731 41.1166C64.6885 40.8195 64.3927 40.4632 64.1858 40.0472C63.9788 39.6015 63.8457 39.141 63.7865 38.6657C63.7568 38.1607 63.7568 37.7003 63.7865 37.2843L63.964 35.5464L63.8751 36.0812C63.6091 36.705 63.3281 37.3437 63.0323 37.9974C62.7366 38.6211 62.3668 39.2004 61.9232 39.7352C61.5091 40.2402 61.0213 40.6561 60.4592 40.983C59.9268 41.2802 59.2909 41.4137 58.5515 41.3841C57.8417 41.3542 57.2503 41.1909 56.7771 40.8938C56.3333 40.5671 55.9784 40.1661 55.7123 39.6907C55.4462 39.1855 55.2539 38.6361 55.1356 38.0419C55.0467 37.4477 55.0172 36.8537 55.0467 36.2595C55.1356 35.1603 55.313 34.0462 55.5791 32.9173C55.8749 31.7587 56.2741 30.6446 56.7771 29.575C57.2798 28.5057 57.9008 27.5254 58.6404 26.6341C59.4092 25.7428 60.3114 25.0001 61.3465 24.4059C61.7309 24.1683 62.1301 23.99 62.5442 23.8712C62.9583 23.7227 63.3576 23.6484 63.7422 23.6484C64.3335 23.6484 64.8808 23.8266 65.3835 24.1832C65.8865 24.5099 66.3449 25.1041 66.759 25.9655C67.2911 25.3716 67.8532 24.8962 68.4448 24.5397C69.0658 24.1533 69.7609 23.9604 70.5299 23.9604C70.8257 23.9604 71.0474 23.9753 71.1952 24.0049C70.2784 26.4113 69.5391 28.8324 68.977 31.2684C68.4448 33.6748 67.8384 36.0812 67.1582 38.4874C67.0694 38.7549 67.025 39.0371 67.025 39.3342C66.9956 39.5719 67.025 39.869 67.1137 40.2255C67.2025 40.5522 67.454 40.7155 67.8679 40.7155C68.2819 40.7155 68.7109 40.4483 69.1544 39.9135C69.6277 39.3787 70.3079 38.4133 71.1952 37.017ZM59.5718 40.7155C59.9268 40.775 60.3114 40.582 60.7255 40.1362C61.1393 39.6907 61.5683 39.0965 62.0118 38.3539C62.4556 37.6112 62.8843 36.7495 63.2984 35.7692C63.7125 34.7591 64.0969 33.7491 64.4519 32.739C64.8365 31.7289 65.1617 30.7339 65.4281 29.7533C65.7236 28.773 65.9456 27.9115 66.0934 27.1689C66.0934 27.0796 66.0934 27.0055 66.0934 26.9461C66.1231 26.8569 66.1377 26.7678 66.1377 26.6786C66.1377 26.4707 66.1082 26.248 66.0491 26.0103C66.0194 25.7726 65.9456 25.5496 65.8273 25.3418C65.709 25.1339 65.5464 24.9556 65.3392 24.807C65.1323 24.6585 64.8808 24.5842 64.585 24.5842C64.1118 24.5842 63.6385 24.8219 63.1655 25.2972C62.7217 25.7428 62.293 26.3519 61.8789 27.1241C61.4648 27.8966 61.0802 28.7879 60.7255 29.798C60.3705 30.7784 60.0451 31.7883 59.7493 32.8283C59.4832 33.868 59.2614 34.8928 59.0839 35.903C58.9065 36.9129 58.7882 37.834 58.729 38.6657C58.729 38.8737 58.729 39.0965 58.729 39.3342C58.729 39.542 58.7587 39.7501 58.8176 39.958C58.8768 40.1362 58.9656 40.2996 59.0839 40.4483C59.2023 40.5967 59.3649 40.6859 59.5718 40.7155ZM77.6694 26.8123C75.8358 30.1098 74.8153 33.556 74.6084 37.1506C74.5787 37.5071 74.5641 37.9081 74.5641 38.3539C74.5641 38.7698 74.6084 39.1559 74.697 39.5125C74.7858 39.869 74.9485 40.1661 75.1851 40.4038C75.4512 40.6414 75.8358 40.76 76.3385 40.76C76.9596 40.76 77.5954 40.582 78.2461 40.2255C78.9263 39.8391 79.5622 39.3491 80.1538 38.7549C80.7748 38.1607 81.3369 37.522 81.8396 36.8388C82.3423 36.1257 82.7564 35.4276 83.0819 34.7444C83.1705 34.5957 83.2297 34.4622 83.2594 34.3434C83.2888 34.1947 83.3923 34.0463 83.5697 33.8976C83.5697 34.0463 83.5697 34.2096 83.5697 34.3879C83.5994 34.5363 83.6143 34.685 83.6143 34.8334C83.4368 35.6059 83.0819 36.3783 82.5495 37.1506C82.0171 37.923 81.396 38.6361 80.6862 39.2897C79.9763 39.9431 79.1926 40.4779 78.335 40.8938C77.4771 41.2802 76.6343 41.4731 75.8061 41.4731C75.0076 41.4731 74.2829 41.3247 73.6324 41.0276C73.0112 40.7006 72.4788 40.27 72.0352 39.7352C71.5916 39.2004 71.2515 38.5766 71.0149 37.8636C70.8078 37.121 70.734 36.3336 70.7931 35.5019C70.8523 34.2245 71.1184 32.9023 71.5916 31.5359C72.0649 30.1692 72.7008 28.9067 73.4993 27.7482C74.3274 26.5896 75.2886 25.6389 76.3828 24.8962C77.4771 24.1238 78.6751 23.7227 79.9763 23.6929C81.603 23.6336 82.7418 23.8416 83.3923 24.3169C84.043 24.7625 84.3979 25.3268 84.4571 26.0103C84.5457 26.8718 84.3093 27.6144 83.7472 28.2382C83.2148 28.8622 82.5938 29.174 81.8839 29.174C81.7361 29.174 81.5881 29.174 81.4403 29.174C81.2926 29.1444 81.1297 29.1146 80.9523 29.085C81.3663 28.6392 81.6473 28.1492 81.7953 27.6144C81.9728 27.05 82.0468 26.5302 82.0171 26.0548C81.9876 25.5794 81.8545 25.1784 81.6178 24.8515C81.4109 24.5248 81.1151 24.3614 80.7305 24.3614C80.3461 24.3316 79.8877 24.5099 79.3553 24.8962C78.8526 25.2527 78.2904 25.8915 77.6694 26.8123ZM85.727 25.0297C85.7861 24.8219 85.801 24.5991 85.7713 24.3614C85.7418 24.0939 85.6826 23.8861 85.594 23.7376C85.7418 23.7078 85.875 23.6929 85.9933 23.6929C86.1116 23.6633 86.2299 23.6484 86.3482 23.6484C86.6143 23.6484 86.9101 23.6929 87.2353 23.7821C87.5903 23.8712 87.9009 24.0049 88.167 24.1832C88.4628 24.3614 88.6994 24.5842 88.8769 24.8515C89.0543 25.119 89.1429 25.4457 89.1429 25.832C89.1135 26.0399 89.0986 26.2776 89.0986 26.5448C89.0986 26.8123 89.0543 27.1094 88.9655 27.4361L87.3242 34.1203C87.2945 34.269 87.2059 34.581 87.0579 35.0562C86.9395 35.5019 86.8066 35.9773 86.6586 36.4823C86.6586 36.5713 86.6143 36.6605 86.5254 36.7495C86.4663 36.9872 86.4074 37.21 86.3482 37.4181C86.3185 37.6259 86.2742 37.8042 86.215 37.9528L86.0376 38.4874C85.9487 38.7549 85.9044 39.0371 85.9044 39.3342C85.875 39.453 85.8601 39.5868 85.8601 39.7352C85.8896 39.8839 85.9193 40.0323 85.9487 40.1808C86.0079 40.3294 86.0967 40.4632 86.215 40.582C86.3334 40.671 86.496 40.7155 86.7029 40.7155C86.9101 40.7155 87.117 40.6561 87.3242 40.5373C87.5311 40.4184 87.7677 40.2106 88.0338 39.9135C88.3001 39.6164 88.5959 39.2303 88.9212 38.7549C89.2466 38.2795 89.6459 37.7003 90.1191 37.017C90.0894 37.6112 89.9268 38.1756 89.631 38.7104C89.3353 39.2449 88.9655 39.7203 88.5219 40.1362C88.0784 40.5522 87.5754 40.8938 87.0135 41.1613C86.4811 41.399 85.9487 41.5176 85.4166 41.5176C84.7658 41.5176 84.2483 41.3841 83.8636 41.1166C83.4792 40.8195 83.1983 40.4632 83.0208 40.0472C82.8434 39.6015 82.7399 39.141 82.7102 38.6657C82.6807 38.1607 82.6807 37.7003 82.7102 37.2843C82.7102 37.2547 82.7102 37.2398 82.7102 37.2398C82.7399 37.21 82.7545 37.1804 82.7545 37.1506C82.8434 36.2001 83.0208 35.1899 83.2869 34.1203C83.5533 33.0212 83.8342 31.9369 84.13 30.8674C84.4257 29.7682 84.7215 28.7136 85.0171 27.7037C85.3129 26.6935 85.5495 25.8022 85.727 25.0297ZM86.8804 19.2368C86.9987 18.8803 87.191 18.5832 87.4571 18.3456C87.7234 18.0782 88.0044 17.8702 88.3001 17.7217C88.6254 17.5732 88.9509 17.4989 89.2761 17.4989C89.6013 17.4692 89.8825 17.5286 90.1191 17.6771C90.4444 17.9148 90.6662 18.2564 90.7845 18.7021C90.9028 19.1477 90.8733 19.623 90.6959 20.128C90.607 20.5439 90.4295 20.9153 90.1634 21.2421C89.9268 21.5392 89.6459 21.7768 89.3204 21.9551C88.9952 22.1333 88.6551 22.2373 88.3001 22.267C87.9747 22.267 87.6791 22.1779 87.4128 21.9996C87.0875 21.762 86.8804 21.3758 86.7918 20.841C86.7029 20.3063 86.7326 19.7715 86.8804 19.2368ZM105.958 37.017C105.929 37.6112 105.781 38.1756 105.515 38.7104C105.249 39.2449 104.894 39.7203 104.45 40.1362C104.036 40.5522 103.548 40.8938 102.986 41.1613C102.454 41.399 101.921 41.5176 101.389 41.5176C100.738 41.5176 100.221 41.3841 99.8363 41.1166C99.4517 40.8195 99.1559 40.4632 98.949 40.0472C98.7421 39.6015 98.6089 39.141 98.5497 38.6657C98.5201 38.1607 98.5201 37.7003 98.5497 37.2843L98.7272 35.5464L98.6384 36.0812C98.3723 36.705 98.0913 37.3437 97.7956 37.9974C97.4998 38.6211 97.13 39.2004 96.6864 39.7352C96.2723 40.2402 95.7845 40.6561 95.2224 40.983C94.69 41.2802 94.0541 41.4137 93.3148 41.3841C92.6049 41.3542 92.0136 41.1909 91.5403 40.8938C91.0965 40.5671 90.7416 40.1661 90.4755 39.6907C90.2094 39.1855 90.0171 38.6361 89.8988 38.0419C89.8099 37.4477 89.7805 36.8537 89.8099 36.2595C89.8988 35.1603 90.0762 34.0462 90.3423 32.9173C90.6381 31.7587 91.0374 30.6446 91.5403 29.575C92.043 28.5057 92.664 27.5254 93.4036 26.6341C94.1724 25.7428 95.0746 25.0001 96.1097 24.4059C96.4941 24.1683 96.8934 23.99 97.3075 23.8712C97.7216 23.7227 98.1208 23.6484 98.5054 23.6484C99.0968 23.6484 99.644 23.8266 100.147 24.1832C100.65 24.5099 101.108 25.1041 101.522 25.9655C102.054 25.3716 102.616 24.8962 103.208 24.5397C103.829 24.1533 104.524 23.9604 105.293 23.9604C105.589 23.9604 105.811 23.9753 105.958 24.0049C105.042 26.4113 104.302 28.8324 103.74 31.2684C103.208 33.6748 102.602 36.0812 101.921 38.4874C101.833 38.7549 101.788 39.0371 101.788 39.3342C101.759 39.5719 101.788 39.869 101.877 40.2255C101.966 40.5522 102.217 40.7155 102.631 40.7155C103.045 40.7155 103.474 40.4483 103.918 39.9135C104.391 39.3787 105.071 38.4133 105.958 37.017ZM94.335 40.7155C94.69 40.775 95.0746 40.582 95.4887 40.1362C95.9026 39.6907 96.3315 39.0965 96.7751 38.3539C97.2188 37.6112 97.6476 36.7495 98.0617 35.7692C98.4757 34.7591 98.8601 33.7491 99.2151 32.739C99.5997 31.7289 99.9249 30.7339 100.191 29.7533C100.487 28.773 100.709 27.9115 100.857 27.1689C100.857 27.0796 100.857 27.0055 100.857 26.9461C100.886 26.8569 100.901 26.7678 100.901 26.6786C100.901 26.4707 100.871 26.248 100.812 26.0103C100.783 25.7726 100.709 25.5496 100.591 25.3418C100.472 25.1339 100.31 24.9556 100.102 24.807C99.8955 24.6585 99.644 24.5842 99.3482 24.5842C98.875 24.5842 98.4017 24.8219 97.9287 25.2972C97.4849 25.7428 97.0562 26.3519 96.6421 27.1241C96.228 27.8966 95.8434 28.7879 95.4887 29.798C95.1338 30.7784 94.8083 31.7883 94.5125 32.8283C94.2464 33.868 94.0246 34.8928 93.8472 35.903C93.6697 36.9129 93.5514 37.834 93.4922 38.6657C93.4922 38.8737 93.4922 39.0965 93.4922 39.3342C93.4922 39.542 93.5219 39.7501 93.5808 39.958C93.64 40.1362 93.7289 40.2996 93.8472 40.4483C93.9655 40.5967 94.1281 40.6859 94.335 40.7155Z" fill="#030E3F"/>
<path d="M42.6802 29.3523C42.769 30.5407 42.621 31.8626 42.2366 33.3183C41.852 34.7444 41.2901 36.0663 40.5508 37.2843C39.8115 38.5023 38.9093 39.5125 37.8447 40.3145C36.7799 41.1166 35.5967 41.488 34.2955 41.4286C33.5857 41.399 32.9349 41.2354 32.3434 40.9383C31.752 40.6116 31.2343 40.1957 30.7907 39.6907C30.3766 39.1855 30.0365 38.5916 29.7704 37.9081C29.5041 37.2249 29.3563 36.4972 29.3266 35.7247C29.2675 34.2986 29.4155 32.8728 29.7704 31.4467C30.1548 30.0208 30.7021 28.7285 31.4117 27.5699C32.1513 26.4113 33.0384 25.4755 34.0738 24.7625C35.1089 24.0494 36.2623 23.6929 37.5341 23.6929C38.4214 23.6929 39.1756 23.8565 39.7966 24.1832C40.4176 24.4803 40.9352 24.8962 41.3493 25.431C41.7634 25.9655 42.074 26.5747 42.2809 27.2579C42.4879 27.9411 42.621 28.6392 42.6802 29.3523ZM34.1624 40.8048C34.9017 40.8642 35.5524 40.6116 36.1143 40.0472C36.7059 39.453 37.2086 38.6955 37.6227 37.7746C38.0368 36.8537 38.3769 35.8435 38.6432 34.7444C38.939 33.6154 39.1607 32.5162 39.3085 31.4467C39.3382 31.1794 39.3974 30.6891 39.486 29.9763C39.5748 29.2633 39.6043 28.5206 39.5748 27.7482C39.5748 26.9461 39.486 26.2331 39.3085 25.609C39.131 24.9556 38.8058 24.5693 38.3325 24.4504C37.741 24.3316 37.1643 24.5842 36.6024 25.208C36.07 25.8022 35.5673 26.5448 35.094 27.4361C34.6505 28.3274 34.2658 29.2334 33.9406 30.1543C33.6151 31.0456 33.3933 31.6993 33.275 32.1152C32.9498 33.1549 32.728 34.1947 32.6097 35.2344C32.4914 36.2446 32.4765 37.1655 32.5654 37.9974C32.654 38.7994 32.8315 39.4679 33.0976 40.0025C33.3639 40.5077 33.7188 40.775 34.1624 40.8048ZM56.4622 23.2919C56.9649 23.5593 57.2164 23.9604 57.2164 24.4952C57.2164 25.0297 57.0981 25.5794 56.8615 26.1438C56.6248 26.7084 56.3439 27.2134 56.0187 27.6589C55.6932 28.0749 55.4419 28.2976 55.2645 28.3274C55.2053 28.3274 55.1756 28.268 55.1756 28.1492C55.0278 27.5254 54.7615 27.0945 54.3771 26.8569C53.9927 26.5896 53.5489 26.5302 53.0462 26.6786C52.573 26.7974 52.0406 27.1095 51.449 27.6144C50.8871 28.0898 50.3401 28.773 49.8077 29.6643C49.1273 30.7339 48.6097 31.8775 48.2548 33.0955C47.9001 34.2839 47.5303 35.4572 47.1459 36.616C46.9093 37.3586 46.7021 38.1607 46.5246 39.0222C46.3472 39.8839 46.2289 40.6116 46.1697 41.2058C45.7558 41.3841 45.3712 41.4731 45.0163 41.4731C44.3361 41.4731 43.8037 41.2207 43.4193 40.7155C43.0644 40.2106 42.9017 39.4975 42.9312 38.5766C42.9903 37.6259 43.1827 36.5417 43.5079 35.3237C43.8334 34.0758 44.1735 32.8282 44.5284 31.5804C44.9128 30.303 45.2529 29.085 45.5487 27.9264C45.8445 26.7678 46.0219 25.8022 46.0811 25.0297C46.1105 24.8219 46.0959 24.5991 46.0368 24.3614C46.0071 24.0939 45.9479 23.8861 45.8593 23.7376C46.0071 23.7078 46.1402 23.6929 46.2586 23.6929C46.3769 23.6633 46.4952 23.6484 46.6135 23.6484C46.8796 23.6484 47.1754 23.6929 47.5006 23.7821C47.8555 23.8712 48.1662 24.0049 48.4323 24.1832C48.728 24.3614 48.9647 24.5842 49.1421 24.8515C49.3493 25.119 49.4528 25.4457 49.4528 25.832C49.4528 26.0993 49.4085 26.4409 49.3196 26.8569C49.2605 27.243 49.1718 27.6738 49.0535 28.1492C48.9352 28.6246 48.8169 29.0999 48.6986 29.575C48.5803 30.0504 48.4768 30.4962 48.388 30.9119C48.7429 30.1991 49.1718 29.3523 49.6745 28.372C50.1773 27.3618 50.754 26.4409 51.4047 25.609C52.0849 24.7774 52.8391 24.1238 53.6672 23.6484C54.4954 23.1434 55.4271 23.0245 56.4622 23.2919ZM71.1952 37.017C71.1658 37.6112 71.0177 38.1756 70.7517 38.7104C70.4853 39.2449 70.1304 39.7203 69.6868 40.1362C69.2728 40.5522 68.7849 40.8938 68.2228 41.1613C67.6906 41.399 67.1582 41.5176 66.6258 41.5176C65.9751 41.5176 65.4575 41.3841 65.0731 41.1166C64.6885 40.8195 64.3927 40.4632 64.1858 40.0472C63.9788 39.6015 63.8457 39.141 63.7865 38.6657C63.7568 38.1607 63.7568 37.7003 63.7865 37.2843L63.964 35.5464L63.8751 36.0812C63.6091 36.705 63.3281 37.3437 63.0323 37.9974C62.7366 38.6211 62.3668 39.2004 61.9232 39.7352C61.5091 40.2402 61.0213 40.6561 60.4592 40.983C59.9268 41.2802 59.2909 41.4137 58.5515 41.3841C57.8417 41.3542 57.2503 41.1909 56.7771 40.8938C56.3333 40.5671 55.9784 40.1661 55.7123 39.6907C55.4462 39.1855 55.2539 38.6361 55.1356 38.0419C55.0467 37.4477 55.0172 36.8537 55.0467 36.2595C55.1356 35.1603 55.313 34.0462 55.5791 32.9173C55.8749 31.7587 56.2741 30.6446 56.7771 29.575C57.2798 28.5057 57.9008 27.5254 58.6404 26.6341C59.4092 25.7428 60.3114 25.0001 61.3465 24.4059C61.7309 24.1683 62.1301 23.99 62.5442 23.8712C62.9583 23.7227 63.3576 23.6484 63.7422 23.6484C64.3335 23.6484 64.8808 23.8266 65.3835 24.1832C65.8865 24.5099 66.3449 25.1041 66.759 25.9655C67.2911 25.3716 67.8532 24.8962 68.4448 24.5397C69.0658 24.1533 69.7609 23.9604 70.5299 23.9604C70.8257 23.9604 71.0474 23.9753 71.1952 24.0049C70.2784 26.4113 69.5391 28.8324 68.977 31.2684C68.4448 33.6748 67.8384 36.0812 67.1582 38.4874C67.0694 38.7549 67.025 39.0371 67.025 39.3342C66.9956 39.5719 67.025 39.869 67.1137 40.2255C67.2025 40.5522 67.454 40.7155 67.8679 40.7155C68.2819 40.7155 68.7109 40.4483 69.1544 39.9135C69.6277 39.3787 70.3079 38.4133 71.1952 37.017ZM59.5718 40.7155C59.9268 40.775 60.3114 40.582 60.7255 40.1362C61.1393 39.6907 61.5683 39.0965 62.0118 38.3539C62.4556 37.6112 62.8843 36.7495 63.2984 35.7692C63.7125 34.7591 64.0969 33.7491 64.4519 32.739C64.8365 31.7289 65.1617 30.7339 65.4281 29.7533C65.7236 28.773 65.9456 27.9115 66.0934 27.1689C66.0934 27.0796 66.0934 27.0055 66.0934 26.9461C66.1231 26.8569 66.1377 26.7678 66.1377 26.6786C66.1377 26.4707 66.1082 26.248 66.0491 26.0103C66.0194 25.7726 65.9456 25.5496 65.8273 25.3418C65.709 25.1339 65.5464 24.9556 65.3392 24.807C65.1323 24.6585 64.8808 24.5842 64.585 24.5842C64.1118 24.5842 63.6385 24.8219 63.1655 25.2972C62.7217 25.7428 62.293 26.3519 61.8789 27.1241C61.4648 27.8966 61.0802 28.7879 60.7255 29.798C60.3705 30.7784 60.0451 31.7883 59.7493 32.8283C59.4832 33.868 59.2614 34.8928 59.0839 35.903C58.9065 36.9129 58.7882 37.834 58.729 38.6657C58.729 38.8737 58.729 39.0965 58.729 39.3342C58.729 39.542 58.7587 39.7501 58.8176 39.958C58.8768 40.1362 58.9656 40.2996 59.0839 40.4483C59.2023 40.5967 59.3649 40.6859 59.5718 40.7155ZM77.6694 26.8123C75.8358 30.1098 74.8153 33.556 74.6084 37.1506C74.5787 37.5071 74.5641 37.9081 74.5641 38.3539C74.5641 38.7698 74.6084 39.1559 74.697 39.5125C74.7858 39.869 74.9485 40.1661 75.1851 40.4038C75.4512 40.6414 75.8358 40.76 76.3385 40.76C76.9596 40.76 77.5954 40.582 78.2461 40.2255C78.9263 39.8391 79.5622 39.3491 80.1538 38.7549C80.7748 38.1607 81.3369 37.522 81.8396 36.8388C82.3423 36.1257 82.7564 35.4276 83.0819 34.7444C83.1705 34.5957 83.2297 34.4622 83.2594 34.3434C83.2888 34.1947 83.3923 34.0463 83.5697 33.8976C83.5697 34.0463 83.5697 34.2096 83.5697 34.3879C83.5994 34.5363 83.6143 34.685 83.6143 34.8334C83.4368 35.6059 83.0819 36.3783 82.5495 37.1506C82.0171 37.923 81.396 38.6361 80.6862 39.2897C79.9763 39.9431 79.1926 40.4779 78.335 40.8938C77.4771 41.2802 76.6343 41.4731 75.8061 41.4731C75.0076 41.4731 74.2829 41.3247 73.6324 41.0276C73.0112 40.7006 72.4788 40.27 72.0352 39.7352C71.5916 39.2004 71.2515 38.5766 71.0149 37.8636C70.8078 37.121 70.734 36.3336 70.7931 35.5019C70.8523 34.2245 71.1184 32.9023 71.5916 31.5359C72.0649 30.1692 72.7008 28.9067 73.4993 27.7482C74.3274 26.5896 75.2886 25.6389 76.3828 24.8962C77.4771 24.1238 78.6751 23.7227 79.9763 23.6929C81.603 23.6336 82.7418 23.8416 83.3923 24.3169C84.043 24.7625 84.3979 25.3268 84.4571 26.0103C84.5457 26.8718 84.3093 27.6144 83.7472 28.2382C83.2148 28.8622 82.5938 29.174 81.8839 29.174C81.7361 29.174 81.5881 29.174 81.4403 29.174C81.2926 29.1444 81.1297 29.1146 80.9523 29.085C81.3663 28.6392 81.6473 28.1492 81.7953 27.6144C81.9728 27.05 82.0468 26.5302 82.0171 26.0548C81.9876 25.5794 81.8545 25.1784 81.6178 24.8515C81.4109 24.5248 81.1151 24.3614 80.7305 24.3614C80.3461 24.3316 79.8877 24.5099 79.3553 24.8962C78.8526 25.2527 78.2904 25.8915 77.6694 26.8123ZM85.727 25.0297C85.7861 24.8219 85.801 24.5991 85.7713 24.3614C85.7418 24.0939 85.6826 23.8861 85.594 23.7376C85.7418 23.7078 85.875 23.6929 85.9933 23.6929C86.1116 23.6633 86.2299 23.6484 86.3482 23.6484C86.6143 23.6484 86.9101 23.6929 87.2353 23.7821C87.5903 23.8712 87.9009 24.0049 88.167 24.1832C88.4628 24.3614 88.6994 24.5842 88.8769 24.8515C89.0543 25.119 89.1429 25.4457 89.1429 25.832C89.1135 26.0399 89.0986 26.2776 89.0986 26.5448C89.0986 26.8123 89.0543 27.1094 88.9655 27.4361L87.3242 34.1203C87.2945 34.269 87.2059 34.581 87.0579 35.0562C86.9395 35.5019 86.8066 35.9773 86.6586 36.4823C86.6586 36.5713 86.6143 36.6605 86.5254 36.7495C86.4663 36.9872 86.4074 37.21 86.3482 37.4181C86.3185 37.6259 86.2742 37.8042 86.215 37.9528L86.0376 38.4874C85.9487 38.7549 85.9044 39.0371 85.9044 39.3342C85.875 39.453 85.8601 39.5868 85.8601 39.7352C85.8896 39.8839 85.9193 40.0323 85.9487 40.1808C86.0079 40.3294 86.0967 40.4632 86.215 40.582C86.3334 40.671 86.496 40.7155 86.7029 40.7155C86.9101 40.7155 87.117 40.6561 87.3242 40.5373C87.5311 40.4184 87.7677 40.2106 88.0338 39.9135C88.3001 39.6164 88.5959 39.2303 88.9212 38.7549C89.2466 38.2795 89.6459 37.7003 90.1191 37.017C90.0894 37.6112 89.9268 38.1756 89.631 38.7104C89.3353 39.2449 88.9655 39.7203 88.5219 40.1362C88.0784 40.5522 87.5754 40.8938 87.0135 41.1613C86.4811 41.399 85.9487 41.5176 85.4166 41.5176C84.7658 41.5176 84.2483 41.3841 83.8636 41.1166C83.4792 40.8195 83.1983 40.4632 83.0208 40.0472C82.8434 39.6015 82.7399 39.141 82.7102 38.6657C82.6807 38.1607 82.6807 37.7003 82.7102 37.2843C82.7102 37.2547 82.7102 37.2398 82.7102 37.2398C82.7399 37.21 82.7545 37.1804 82.7545 37.1506C82.8434 36.2001 83.0208 35.1899 83.2869 34.1203C83.5533 33.0212 83.8342 31.9369 84.13 30.8674C84.4257 29.7682 84.7215 28.7136 85.0171 27.7037C85.3129 26.6935 85.5495 25.8022 85.727 25.0297ZM86.8804 19.2368C86.9987 18.8803 87.191 18.5832 87.4571 18.3456C87.7234 18.0782 88.0044 17.8702 88.3001 17.7217C88.6254 17.5732 88.9509 17.4989 89.2761 17.4989C89.6013 17.4692 89.8825 17.5286 90.1191 17.6771C90.4444 17.9148 90.6662 18.2564 90.7845 18.7021C90.9028 19.1477 90.8733 19.623 90.6959 20.128C90.607 20.5439 90.4295 20.9153 90.1634 21.2421C89.9268 21.5392 89.6459 21.7768 89.3204 21.9551C88.9952 22.1333 88.6551 22.2373 88.3001 22.267C87.9747 22.267 87.6791 22.1779 87.4128 21.9996C87.0875 21.762 86.8804 21.3758 86.7918 20.841C86.7029 20.3063 86.7326 19.7715 86.8804 19.2368ZM105.958 37.017C105.929 37.6112 105.781 38.1756 105.515 38.7104C105.249 39.2449 104.894 39.7203 104.45 40.1362C104.036 40.5522 103.548 40.8938 102.986 41.1613C102.454 41.399 101.921 41.5176 101.389 41.5176C100.738 41.5176 100.221 41.3841 99.8363 41.1166C99.4517 40.8195 99.1559 40.4632 98.949 40.0472C98.7421 39.6015 98.6089 39.141 98.5497 38.6657C98.5201 38.1607 98.5201 37.7003 98.5497 37.2843L98.7272 35.5464L98.6384 36.0812C98.3723 36.705 98.0913 37.3437 97.7956 37.9974C97.4998 38.6211 97.13 39.2004 96.6864 39.7352C96.2723 40.2402 95.7845 40.6561 95.2224 40.983C94.69 41.2802 94.0541 41.4137 93.3148 41.3841C92.6049 41.3542 92.0136 41.1909 91.5403 40.8938C91.0965 40.5671 90.7416 40.1661 90.4755 39.6907C90.2094 39.1855 90.0171 38.6361 89.8988 38.0419C89.8099 37.4477 89.7805 36.8537 89.8099 36.2595C89.8988 35.1603 90.0762 34.0462 90.3423 32.9173C90.6381 31.7587 91.0374 30.6446 91.5403 29.575C92.043 28.5057 92.664 27.5254 93.4036 26.6341C94.1724 25.7428 95.0746 25.0001 96.1097 24.4059C96.4941 24.1683 96.8934 23.99 97.3075 23.8712C97.7216 23.7227 98.1208 23.6484 98.5054 23.6484C99.0968 23.6484 99.644 23.8266 100.147 24.1832C100.65 24.5099 101.108 25.1041 101.522 25.9655C102.054 25.3716 102.616 24.8962 103.208 24.5397C103.829 24.1533 104.524 23.9604 105.293 23.9604C105.589 23.9604 105.811 23.9753 105.958 24.0049C105.042 26.4113 104.302 28.8324 103.74 31.2684C103.208 33.6748 102.602 36.0812 101.921 38.4874C101.833 38.7549 101.788 39.0371 101.788 39.3342C101.759 39.5719 101.788 39.869 101.877 40.2255C101.966 40.5522 102.217 40.7155 102.631 40.7155C103.045 40.7155 103.474 40.4483 103.918 39.9135C104.391 39.3787 105.071 38.4133 105.958 37.017ZM94.335 40.7155C94.69 40.775 95.0746 40.582 95.4887 40.1362C95.9026 39.6907 96.3315 39.0965 96.7751 38.3539C97.2188 37.6112 97.6476 36.7495 98.0617 35.7692C98.4757 34.7591 98.8601 33.7491 99.2151 32.739C99.5997 31.7289 99.9249 30.7339 100.191 29.7533C100.487 28.773 100.709 27.9115 100.857 27.1689C100.857 27.0796 100.857 27.0055 100.857 26.9461C100.886 26.8569 100.901 26.7678 100.901 26.6786C100.901 26.4707 100.871 26.248 100.812 26.0103C100.783 25.7726 100.709 25.5496 100.591 25.3418C100.472 25.1339 100.31 24.9556 100.102 24.807C99.8955 24.6585 99.644 24.5842 99.3482 24.5842C98.875 24.5842 98.4017 24.8219 97.9287 25.2972C97.4849 25.7428 97.0562 26.3519 96.6421 27.1241C96.228 27.8966 95.8434 28.7879 95.4887 29.798C95.1338 30.7784 94.8083 31.7883 94.5125 32.8283C94.2464 33.868 94.0246 34.8928 93.8472 35.903C93.6697 36.9129 93.5514 37.834 93.4922 38.6657C93.4922 38.8737 93.4922 39.0965 93.4922 39.3342C93.4922 39.542 93.5219 39.7501 93.5808 39.958C93.64 40.1362 93.7289 40.2996 93.8472 40.4483C93.9655 40.5967 94.1281 40.6859 94.335 40.7155Z" fill="white"/>
</g>
<path d="M41.5438 10.4922C39.0904 19.0118 33.6975 19.8022 31.3076 19.1324C35.3861 21.9615 39.8311 19.9361 41.5438 18.5698C47.7255 12.3971 44.9692 6.32619 42.8184 4.06234C36.5094 -2.94624 23.3326 0.506642 17.3272 4.06234C4.02391 11.939 -0.994678 26.5668 0.160395 36.4529C1.31547 46.3389 9.60014 53.9743 15.6543 55.9837C21.7085 57.9929 27.8026 59.4398 37.4015 55.5818C45.0807 52.4954 47.8768 45.026 48.315 41.6771C47.0404 45.0208 42.8184 46.1782 40.8667 46.3389C35.8959 46.9497 33.5115 50.344 32.9404 51.9649C32.7811 49.7145 34.8391 47.6249 35.8879 46.8612C34.5179 46.6041 31.3076 48.8438 29.8737 49.9958C26.6234 53.2428 21.7218 53.0634 19.6771 52.5679C29.6824 57.3258 38.8221 52.8356 42.1413 49.9958C38.8276 54.0468 32.5822 55.6755 29.8737 55.9837C11.7749 57.2053 6.3739 43.4721 5.93579 36.4529C5.01172 18.3849 18.2213 7.62416 25.2181 4.35563C26.75 3.40408 44.6108 -0.157274 41.5438 10.4922Z" fill="#50B1FE"/>
</g>
<defs>
<filter id="filter0_d_259_151" x="25.314" y="17.4915" width="84.6445" height="32.0261" filterUnits="userSpaceOnUse" color-interpolation-filters="sRGB">
<feFlood flood-opacity="0" result="BackgroundImageFix"/>
<feColorMatrix in="SourceAlpha" type="matrix" values="0 0 0 0 0 0 0 0 0 0 0 0 0 0 0 0 0 0 127 0" result="hardAlpha"/>
<feOffset dy="4"/>
<feGaussianBlur stdDeviation="2"/>
<feComposite in2="hardAlpha" operator="out"/>
<feColorMatrix type="matrix" values="0 0 0 0 0 0 0 0 0 0 0 0 0 0 0 0 0 0 0.25 0"/>
<feBlend mode="normal" in2="BackgroundImageFix" result="effect1_dropShadow_259_151"/>
<feBlend mode="normal" in="SourceGraphic" in2="effect1_dropShadow_259_151" result="shape"/>
</filter>
<clipPath id="clip0_259_151">
<rect width="107" height="58" fill="white"/>
</clipPath>
</defs>
</svg>
